<?xml version="1.0" encoding="UTF-8" standalone="no"?>
<!-- Generator: Adobe Illustrator 14.0.0, SVG Export Plug-In . SVG Version: 6.00 Build 43363)  -->

<svg
   xmlns:dc="http://purl.org/dc/elements/1.1/"
   xmlns:cc="http://creativecommons.org/ns#"
   xmlns:rdf="http://www.w3.org/1999/02/22-rdf-syntax-ns#"
   xmlns:svg="http://www.w3.org/2000/svg"
   xmlns="http://www.w3.org/2000/svg"
   xmlns:xlink="http://www.w3.org/1999/xlink"
   xmlns:sodipodi="http://sodipodi.sourceforge.net/DTD/sodipodi-0.dtd"
   xmlns:inkscape="http://www.inkscape.org/namespaces/inkscape"
   version="1.1"
   id="icon-m-image-edit-free-draw-layer"
   x="0px"
   y="0px"
   width="48px"
   height="48px"
   viewBox="0 0 48 48"
   style="enable-background:new 0 0 48 48;"
   xml:space="preserve"
   inkscape:version="0.48.1 r9760"
   sodipodi:docname="sketchit_draw.svg"><metadata
   id="metadata14"><rdf:RDF><cc:Work
       rdf:about=""><dc:format>image/svg+xml</dc:format><dc:type
         rdf:resource="http://purl.org/dc/dcmitype/StillImage" /></cc:Work></rdf:RDF></metadata><defs
   id="defs12"><linearGradient
     inkscape:collect="always"
     id="linearGradient3013"><stop
       style="stop-color:#333333;stop-opacity:1;"
       offset="0"
       id="stop3015" /><stop
       style="stop-color:#333333;stop-opacity:0;"
       offset="1"
       id="stop3017" /></linearGradient><linearGradient
     inkscape:collect="always"
     id="linearGradient2997"><stop
       style="stop-color:#333333;stop-opacity:1;"
       offset="0"
       id="stop2999" /><stop
       style="stop-color:#333333;stop-opacity:0;"
       offset="1"
       id="stop3001" /></linearGradient><filter
     id="filter2991"
     inkscape:label="Invert"
     x="0"
     y="0"
     width="1"
     height="1"
     inkscape:menu="Color"
     inkscape:menu-tooltip="Invert colors"
     color-interpolation-filters="sRGB"><feColorMatrix
       id="feColorMatrix2993"
       type="saturate"
       values="1"
       result="fbSourceGraphic" /><feColorMatrix
       id="feColorMatrix2995"
       in="fbSourceGraphic"
       values="-1 0 0 0 1 0 -1 0 0 1 0 0 -1 0 1 0 0 0 1 0 " /></filter><linearGradient
     inkscape:collect="always"
     xlink:href="#linearGradient2997"
     id="linearGradient3003"
     x1="34.426231"
     y1="8.6557379"
     x2="-35.213116"
     y2="64.91803"
     gradientUnits="userSpaceOnUse" /><linearGradient
     inkscape:collect="always"
     xlink:href="#linearGradient3013"
     id="linearGradient3019"
     x1="24.393442"
     y1="36.590164"
     x2="-14.754098"
     y2="75.934425"
     gradientUnits="userSpaceOnUse" /></defs><sodipodi:namedview
   pagecolor="#ffffff"
   bordercolor="#666666"
   borderopacity="1"
   objecttolerance="10"
   gridtolerance="10"
   guidetolerance="10"
   inkscape:pageopacity="0"
   inkscape:pageshadow="2"
   inkscape:window-width="1064"
   inkscape:window-height="787"
   id="namedview10"
   showgrid="false"
   inkscape:zoom="5.0833333"
   inkscape:cx="24"
   inkscape:cy="12.705273"
   inkscape:window-x="0"
   inkscape:window-y="26"
   inkscape:window-maximized="0"
   inkscape:current-layer="icon-m-image-edit-free-draw" />
<g
   id="icon-m-image-edit-free-draw"
   style="filter:url(#filter2991)">
	<rect
   style="fill:none;"
   width="48"
   height="48"
   id="rect4" />
	<path
   style="fill:url(#linearGradient3003);fill-opacity:1"
   d="M41.997,7.801l-7.472-7.492c-0.416-0.411-1.09-0.411-1.506,0L11.55,21.575   c-0.41,0.413-0.901,1.205-1.089,1.76L6.628,34.842c-0.183,0.553,0.119,0.854,0.675,0.671l11.492-3.834   c0.55-0.184,1.342-0.673,1.754-1.088L41.996,9.303C42.41,8.892,42.41,8.213,41.997,7.801z M18.409,29.091l-4.585,1.53l-2.308-2.308   l1.53-4.594l2.034-2.036l5.317,5.418L18.409,29.091z"
   id="path6" />
	<path
   style="fill:url(#linearGradient3019);fill-opacity:1"
   d="M45.8,40.879c-0.866-1.982-2.509-3.458-4.753-4.266c-2.785-1.004-6.342-0.827-8.848,0.438   c-1.416,0.715-2.638,1.686-3.818,2.626c-1.266,1.008-2.459,1.96-3.752,2.484c-5.619,2.278-12.079,1.411-19.749-2.648   c-0.944-0.499-2.118-0.141-2.619,0.806c-0.5,0.946-0.139,2.119,0.807,2.619c5.427,2.874,10.506,4.313,15.185,4.313   c2.752,0,5.369-0.498,7.832-1.497c1.813-0.733,3.285-1.909,4.713-3.044c1.074-0.855,2.089-1.664,3.146-2.199   c1.344-0.676,3.762-0.979,5.791-0.25c1.231,0.443,2.08,1.175,2.514,2.171c0.43,0.981,1.571,1.43,2.553,1.001   C45.78,43.002,46.229,41.859,45.8,40.879z"
   id="path8" />
</g>
</svg>